<svg xmlns="http://www.w3.org/2000/svg" width="500" height="500" viewBox="0 0 500 500">
<g>
<path d="M 39.14 278.46 C34.54,280.79 26.43,281.29 21.11,279.56 C16.05,277.91 9.40,271.96 7.38,267.28 C5.74,263.46 5.57,255.26 7.06,251.32 C8.44,247.67 12.49,243.45 16.02,241.99 C18.53,240.95 19.34,241.20 24.02,244.42 C30.13,248.63 35.83,249.16 41.79,246.09 C46.62,243.60 52.42,237.54 51.72,235.71 C51.42,234.93 48.69,232.88 45.64,231.17 C34.57,224.92 28.03,215.33 28.01,205.32 C27.99,196.10 31.02,191.38 39.50,187.38 C46.72,183.97 52.43,184.18 55.98,187.97 C61.19,193.56 60.85,194.91 52.50,201.47 C49.87,203.53 49.52,204.40 49.67,208.45 C49.86,213.28 53.07,219.94 56.87,223.38 C58.92,225.24 58.96,225.23 60.05,222.38 C60.65,220.80 61.74,217.25 62.46,214.50 C64.37,207.18 66.35,202.85 72.53,192.49 C81.43,177.58 92.12,169.34 103.97,168.27 C108.96,167.82 109.91,168.05 112.71,170.41 C116.87,173.91 118.43,178.68 117.08,183.68 C115.54,189.37 113.49,191.69 109.27,192.47 C107.20,192.86 104.94,193.64 104.25,194.21 C100.65,197.19 97.77,218.87 99.93,226.79 C101.72,233.37 107.34,234.66 112.72,229.74 C115.28,227.39 117.38,221.34 118.96,211.73 C120.32,203.43 121.51,200.17 124.24,197.25 C127.15,194.14 128.73,194.42 131.13,198.50 C133.41,202.36 135.05,202.86 137.13,200.33 C137.88,199.42 140.68,196.94 143.34,194.83 C147.58,191.47 148.84,191.00 153.51,191.00 C163.45,191.00 164.30,192.29 164.99,208.49 C165.49,220.36 165.53,220.49 168.23,221.79 C170.24,222.75 171.49,222.81 172.97,222.02 C176.55,220.10 177.80,216.27 180.49,198.88 C180.78,197.03 180.17,195.57 178.45,193.95 C174.97,190.68 175.33,187.75 179.62,184.47 C182.06,182.61 184.32,179.35 186.53,174.50 C189.86,167.20 191.15,166.00 195.67,166.00 C198.16,166.00 198.17,166.06 197.85,173.75 L 197.52 181.50 L 202.51 182.00 C206.81,182.43 207.55,182.82 207.83,184.85 C208.57,190.06 207.26,191.87 201.51,193.54 C194.31,195.63 192.00,198.56 192.00,205.58 C192.00,209.65 192.52,211.49 194.25,213.48 C199.53,219.56 208.83,216.70 212.16,207.98 C213.10,205.51 214.63,200.12 215.55,196.00 C216.48,191.88 218.32,186.36 219.64,183.75 C222.00,179.07 222.10,179.00 226.88,179.00 L 231.73 179.00 L 231.23 192.86 C230.75,206.17 230.82,206.82 232.94,208.94 C234.91,210.91 235.38,211.00 237.32,209.76 C240.62,207.65 243.75,200.51 245.83,190.35 C246.86,185.32 248.59,179.69 249.67,177.85 C251.41,174.88 252.08,174.52 255.57,174.67 C257.73,174.76 260.96,175.15 262.75,175.53 C264.91,175.99 266.00,175.85 266.00,175.10 C266.00,174.48 267.46,173.08 269.25,171.99 C273.75,169.24 283.28,169.26 287.81,172.03 C292.03,174.60 293.64,178.53 295.01,189.61 C296.24,199.50 297.21,201.40 299.52,198.45 C302.15,195.09 305.00,189.16 305.00,187.04 C305.00,183.59 311.13,171.82 315.25,167.35 C320.51,161.63 326.85,159.53 336.38,160.33 C343.08,160.89 343.70,160.76 348.36,157.77 L 353.27 154.62 L 355.14 156.92 C357.44,159.76 357.43,160.36 354.98,171.45 C353.89,176.37 353.00,181.63 353.00,183.13 C353.00,186.36 355.33,189.00 358.19,189.00 C361.61,189.00 367.61,182.06 369.40,176.04 C371.50,168.97 371.42,166.75 368.91,161.83 C366.42,156.93 366.93,152.36 370.44,148.28 C372.54,145.83 373.58,145.51 380.45,145.16 C389.66,144.70 395.66,146.61 399.58,151.28 C402.19,154.38 402.21,154.51 401.52,165.56 L 400.82 176.71 L 403.55 178.86 C407.23,181.75 409.36,181.55 412.31,178.04 C414.74,175.15 415.47,173.47 420.15,160.00 C422.95,151.94 431.16,143.11 437.62,141.21 C442.73,139.71 448.73,139.66 452.84,141.10 C455.63,142.07 456.33,141.90 459.07,139.60 C460.84,138.11 463.39,137.00 465.05,137.00 L 467.95 137.00 L 468.23 153.25 C468.49,168.63 468.61,169.51 470.50,169.78 C471.66,169.94 474.53,168.37 477.36,166.03 C480.20,163.67 483.27,162.00 484.74,162.00 C487.08,162.00 487.22,162.26 486.67,165.64 C486.35,167.65 483.25,174.96 479.79,181.89 C472.66,196.19 469.26,199.60 463.13,198.62 C459.04,197.97 456.42,195.74 453.87,190.75 C452.82,188.69 451.58,187.00 451.11,187.00 C450.65,187.00 448.52,189.99 446.38,193.64 C442.27,200.68 440.27,202.49 434.93,204.02 C429.41,205.60 424.40,203.63 420.75,198.45 C419.03,196.00 417.33,194.00 416.98,194.00 C416.62,194.00 414.91,196.21 413.16,198.91 C407.01,208.39 400.55,212.08 392.66,210.60 C384.04,208.98 380.78,197.81 384.48,182.50 C387.12,171.58 386.22,166.00 381.83,166.00 C379.34,166.00 377.57,169.92 372.50,186.56 C366.81,205.25 362.09,214.40 356.76,217.12 C354.08,218.49 351.91,218.92 349.90,218.48 C345.48,217.51 341.16,213.39 340.42,209.44 C339.58,204.95 338.50,205.10 335.97,210.05 C333.20,215.49 325.15,223.68 321.75,224.53 C320.24,224.91 317.88,224.94 316.52,224.59 C312.55,223.60 307.13,218.17 305.85,213.91 C305.21,211.76 304.15,210.00 303.50,210.00 C301.28,210.00 291.50,217.79 286.71,223.38 C280.22,230.94 274.19,234.42 268.84,233.71 C264.04,233.06 259.55,229.20 257.95,224.34 C256.61,220.29 255.01,219.98 254.98,223.75 C254.94,231.65 252.86,250.15 251.50,254.70 C248.94,263.30 243.26,266.02 238.75,260.80 C237.31,259.14 237.00,256.82 237.00,247.89 C237.00,241.02 236.62,237.00 235.96,237.00 C235.39,237.00 233.14,237.91 230.96,239.02 C225.95,241.57 223.36,240.95 217.48,235.78 L 212.92 231.76 L 206.52 237.91 C196.81,247.23 191.03,249.00 184.90,244.52 L 184.82 244.46 C181.10,241.75 179.33,240.46 177.75,240.65 C176.30,240.83 175.00,242.23 172.50,244.90 C166.76,251.03 161.93,252.90 156.23,251.19 C149.82,249.27 148.58,245.93 148.00,229.00 L 147.50 214.50 L 144.63 214.70 C140.98,214.97 138.21,217.43 135.88,222.50 C134.40,225.72 134.04,229.04 134.02,239.53 C134.00,255.33 133.26,257.00 126.40,257.00 C121.90,257.00 119.16,255.24 116.50,250.66 C115.63,249.16 115.04,249.56 112.00,253.71 C107.86,259.38 99.01,264.45 95.00,263.47 C89.27,262.06 84.79,255.12 82.78,244.54 L 81.53 237.93 L 73.66 238.21 L 65.78 238.50 L 62.45 247.84 C57.03,263.02 49.15,273.37 39.14,278.46 ZM 97.38 373.49 C90.57,375.26 89.99,375.27 83.69,373.57 C78.53,372.18 72.90,367.55 70.26,362.50 C66.46,355.26 69.34,342.74 75.88,338.08 C79.60,335.44 82.19,335.44 84.59,338.10 C91.60,345.84 101.70,344.38 111.17,334.25 C117.93,327.02 119.09,324.13 120.14,311.84 C121.27,298.74 120.25,293.35 116.46,292.40 C105.04,289.53 97.48,305.96 107.50,311.87 C111.70,314.34 112.04,317.17 108.73,322.08 C103.61,329.67 95.74,331.95 88.09,328.04 C73.57,320.64 73.44,298.94 87.83,284.17 C96.17,275.61 108.59,271.40 123.13,272.20 C136.00,272.90 141.97,276.90 149.13,289.57 C150.81,292.56 152.57,295.24 153.04,295.52 C153.51,295.81 156.16,291.65 158.93,286.27 C161.70,280.90 165.68,274.25 167.77,271.50 C172.93,264.72 181.50,258.92 187.36,258.26 C191.57,257.79 192.23,258.03 195.38,261.18 C199.57,265.37 200.89,271.73 198.99,278.52 C197.57,283.61 196.49,284.73 191.26,286.52 C184.59,288.80 183.59,291.27 183.54,305.44 C183.50,316.51 183.73,318.15 185.60,320.67 C188.58,324.69 192.94,324.94 196.91,321.31 C199.26,319.16 200.59,316.37 202.56,309.51 C206.42,296.02 210.18,290.49 218.33,286.34 C224.22,283.35 231.52,282.36 236.26,283.92 C239.44,284.97 240.16,284.83 243.60,282.49 C246.11,280.79 248.46,280.01 250.46,280.20 C253.05,280.46 253.54,280.96 253.80,283.61 C253.97,285.33 253.41,289.74 252.55,293.43 C251.70,297.11 251.00,302.36 251.00,305.08 C251.00,309.40 251.32,310.19 253.50,311.18 C259.46,313.90 264.19,307.20 267.53,291.35 C269.71,281.01 272.61,275.61 276.21,275.19 C278.04,274.98 279.19,275.49 279.93,276.86 C282.92,282.46 283.76,282.44 290.10,276.57 C296.57,270.57 300.76,269.09 306.90,270.61 C312.52,272.00 314.18,276.26 313.37,287.21 C312.83,294.41 313.01,296.36 314.38,298.46 C318.32,304.48 324.59,299.63 327.48,288.33 C332.38,269.14 335.66,263.00 341.02,263.00 C344.90,263.00 345.33,264.91 344.47,278.58 C343.87,288.29 344.01,290.36 345.40,292.49 C347.46,295.63 350.98,295.74 353.69,292.75 C356.66,289.48 358.62,282.73 362.03,264.07 C366.21,241.16 367.42,237.34 371.97,232.79 C374.45,230.31 376.68,229.00 378.41,229.00 C383.11,229.00 383.08,229.77 377.07,258.50 C373.04,277.80 373.08,287.23 377.19,290.30 C379.74,292.20 380.02,292.21 382.43,290.64 C385.31,288.75 387.90,284.04 390.50,276.00 C394.26,264.34 400.17,255.53 406.40,252.28 C408.68,251.08 411.94,250.69 418.75,250.79 C427.11,250.92 428.36,250.69 431.71,248.42 C433.86,246.96 436.48,246.03 437.96,246.20 C440.31,246.48 440.49,246.87 440.43,251.50 C440.39,254.25 439.99,260.87 439.53,266.22 C438.61,277.08 439.28,279.00 443.97,279.00 C445.92,279.00 447.85,277.73 450.79,274.50 C455.19,269.67 456.70,269.05 457.70,271.66 C458.50,273.75 455.65,284.65 452.25,292.50 C444.12,311.29 432.19,314.34 424.99,299.48 C423.80,297.01 422.64,295.00 422.43,295.00 C422.21,295.00 420.85,297.36 419.41,300.25 C411.63,315.81 399.46,318.57 391.98,306.47 L 389.82 302.97 L 385.99 308.90 C381.44,315.93 374.67,320.45 368.68,320.45 C365.42,320.45 364.19,319.79 360.87,316.23 C358.70,313.90 356.79,312.00 356.63,312.00 C356.47,312.00 354.90,314.22 353.14,316.94 C346.10,327.80 335.72,328.98 330.15,319.54 C327.69,315.36 326.71,315.14 325.21,318.45 C323.41,322.39 316.76,329.20 313.28,330.65 C307.87,332.92 305.12,332.35 300.88,328.12 L 297.00 324.24 L 297.00 295.00 L 294.13 295.00 C290.38,295.00 286.39,298.23 285.16,302.27 C284.62,304.04 283.95,311.58 283.67,319.00 C283.39,326.42 282.85,333.28 282.48,334.24 C282.10,335.20 280.03,336.45 277.88,337.03 C272.74,338.42 269.28,336.79 266.38,331.60 L 264.19 327.70 L 262.20 331.60 C259.76,336.38 257.54,338.46 252.70,340.48 C246.69,342.99 240.86,340.44 237.38,333.75 C235.54,330.21 234.54,330.28 232.97,334.07 C232.27,335.75 229.39,339.58 226.56,342.57 C222.76,346.58 220.71,348.00 218.67,348.00 C215.04,348.00 209.21,344.93 205.56,341.09 C201.92,337.26 200.47,337.20 199.20,340.85 C197.86,344.71 191.55,350.66 187.32,352.06 C182.73,353.58 178.11,352.59 173.20,349.03 C169.41,346.28 169.13,345.73 168.48,339.67 C167.84,333.66 169.48,306.53 170.67,303.41 C171.61,300.96 166.24,301.70 164.60,304.25 C162.88,306.94 160.61,318.13 158.47,334.50 C156.68,348.21 155.35,350.84 149.21,352.83 C145.79,353.94 144.64,353.93 142.31,352.82 C137.34,350.44 136.85,347.94 138.12,331.10 C139.33,315.11 138.39,307.00 135.35,307.00 C133.33,307.00 132.30,310.17 130.48,322.00 C125.49,354.34 116.35,368.55 97.38,373.49 ZM 227.76 138.48 C223.02,140.38 207.30,141.41 202.50,140.13 C197.59,138.83 193.28,136.21 191.21,133.27 C188.28,129.11 184.49,121.17 182.50,115.00 C181.53,111.97 179.62,107.58 178.26,105.24 C175.67,100.76 174.88,94.72 176.65,92.95 C179.81,89.79 204.15,86.39 216.34,87.41 C220.72,87.77 228.84,88.95 234.40,90.03 C247.80,92.63 258.48,92.50 276.00,89.50 C293.63,86.48 302.14,86.38 315.08,89.02 C331.88,92.44 333.00,93.73 328.15,104.10 C326.50,107.62 323.76,114.16 322.05,118.64 C317.86,129.61 314.36,134.20 307.82,137.32 C300.96,140.59 293.67,141.49 286.32,139.97 C274.22,137.47 269.09,132.84 261.01,117.11 C255.45,106.29 253.95,105.19 250.36,109.25 C249.26,110.49 246.60,115.06 244.43,119.42 C239.60,129.14 233.42,136.22 227.76,138.48 ZM 72.78 183.15 C70.18,186.64 67.39,190.40 66.57,191.50 C65.12,193.45 65.09,193.44 65.04,191.00 C64.93,184.79 83.16,149.96 94.24,135.20 C106.46,118.92 128.49,97.95 144.11,87.74 C154.05,81.25 178.23,69.20 187.64,66.06 C205.46,60.10 238.94,56.21 261.99,57.41 C307.22,59.76 338.97,72.04 373.50,100.56 C390.75,114.81 407.50,133.28 413.20,144.35 C415.51,148.83 416.20,157.19 414.42,158.98 C412.65,160.75 410.06,159.03 407.83,154.63 C398.70,136.57 372.11,109.58 347.74,93.65 C339.19,88.05 316.95,77.67 305.00,73.69 C287.76,67.94 275.58,65.80 256.96,65.25 C211.71,63.90 170.00,77.92 134.00,106.60 C115.35,121.45 103.55,135.44 88.12,161.00 C85.30,165.68 81.75,171.14 80.24,173.15 C78.73,175.16 75.37,179.66 72.78,183.15 ZM 278.00 442.00 C265.31,443.92 246.96,445.14 241.50,444.43 C239.85,444.21 234.68,443.53 230.00,442.92 C198.50,438.80 167.46,427.26 141.93,410.19 C127.53,400.56 106.00,380.75 106.00,377.13 C106.00,376.55 106.92,375.58 108.04,374.98 C110.83,373.48 114.54,375.90 126.75,387.16 C141.35,400.63 156.76,410.10 181.08,420.55 C199.61,428.51 218.14,432.56 240.88,433.62 C280.49,435.46 317.42,425.53 351.00,404.00 C380.55,385.05 404.96,355.76 419.61,321.68 C423.90,311.70 425.68,310.09 429.59,312.65 C433.19,315.01 432.54,318.06 425.31,332.69 C413.30,356.98 399.56,376.13 383.93,390.37 C352.94,418.58 317.05,436.08 278.00,442.00 ZM 283.08 133.85 C288.90,136.89 290.11,137.16 296.00,136.75 C309.49,135.81 316.08,128.70 319.00,111.93 C320.35,104.15 318.95,98.77 314.77,95.66 C312.42,93.92 310.11,93.58 298.26,93.20 C277.06,92.52 268.21,95.23 265.12,103.33 C263.83,106.73 263.86,107.72 265.40,112.58 C268.05,121.02 275.38,129.83 283.08,133.85 ZM 203.50 134.96 C208.00,136.44 223.92,135.61 227.61,133.70 C234.29,130.25 241.27,119.32 243.10,109.44 C244.42,102.25 243.02,99.39 236.53,96.05 C231.81,93.63 230.75,93.50 215.53,93.50 C201.13,93.50 199.02,93.72 194.75,95.70 C191.54,97.18 189.64,98.81 188.91,100.70 C186.74,106.33 190.13,121.09 195.28,128.44 C198.02,132.35 199.78,133.74 203.50,134.96 ZM 78.00 329.97 C78.00,332.11 74.37,330.89 72.79,328.22 C66.70,317.91 59.00,287.49 59.00,273.71 C59.00,267.24 62.52,258.39 64.02,261.08 C65.12,263.03 69.65,290.61 71.43,306.17 C72.53,315.74 73.51,320.08 75.44,323.89 C76.85,326.66 78.00,329.40 78.00,329.97 ZM 303.25 377.11 C299.43,379.37 296.45,382.12 294.34,385.36 L 291.17 390.22 L 289.66 387.31 C287.63,383.39 279.73,376.22 276.56,375.43 C275.15,375.07 274.01,374.49 274.02,374.14 C274.02,373.79 276.33,372.38 279.15,371.00 C284.51,368.38 287.91,364.75 290.42,358.96 C291.57,356.31 291.93,356.00 291.96,357.64 C291.98,358.82 292.67,360.05 293.50,360.36 C294.33,360.68 295.00,362.01 295.00,363.31 C295.00,366.30 297.10,368.21 303.75,371.29 L 308.99 373.72 ZM 346.57 255.54 C341.44,257.68 338.41,257.34 334.98,254.25 C330.57,250.27 330.00,245.35 333.47,241.21 C338.36,235.40 349.50,234.40 351.85,239.56 C354.55,245.50 351.98,253.27 346.57,255.54 ZM 235.60 168.60 C232.89,171.31 231.41,171.99 228.35,171.97 C216.95,171.89 213.08,158.71 223.00,153.75 C224.93,152.79 228.57,152.00 231.10,152.00 C237.08,152.00 239.00,154.05 239.00,160.43 C239.00,164.52 238.52,165.68 235.60,168.60 ZM 443.67 239.43 C442.86,241.52 438.73,241.43 436.11,239.25 C433.87,237.39 432.35,229.20 431.78,216.00 L 431.50 209.50 L 435.62 209.20 C438.77,208.97 439.90,209.30 440.40,210.60 C441.55,213.59 444.29,237.80 443.67,239.43 ZM 71.61 228.71 C72.59,229.42 75.26,230.00 77.54,230.00 L 81.71 230.00 L 83.85 218.60 C86.06,206.88 86.63,198.00 85.17,198.00 C82.48,198.00 75.84,209.61 71.98,221.06 C69.94,227.11 69.93,227.47 71.61,228.71 ZM 221.07 317.37 C223.85,320.90 226.52,320.68 230.60,316.60 C233.54,313.66 234.00,312.54 234.00,308.30 C234.00,302.86 232.78,301.00 229.20,301.00 C221.07,301.00 216.09,311.03 221.07,317.37 ZM 323.40 193.60 C325.27,195.47 327.47,197.00 328.30,197.00 C330.61,197.00 335.83,190.44 336.54,186.63 C336.91,184.68 336.69,182.29 336.03,181.06 C335.04,179.20 334.15,178.94 329.71,179.20 C324.85,179.48 324.42,179.73 322.29,183.50 C319.31,188.78 319.40,189.60 323.40,193.60 ZM 265.31 206.36 C267.55,207.27 270.62,207.00 272.22,205.75 C274.73,203.80 277.99,197.75 278.00,195.06 C278.00,192.00 274.33,188.00 271.51,188.00 C268.96,188.00 264.56,192.36 263.03,196.39 C261.82,199.60 263.16,205.49 265.31,206.36 ZM 407.52 285.02 C412.40,290.42 421.00,284.23 421.00,275.31 C421.00,270.43 418.94,268.68 413.80,269.19 C407.87,269.78 403.56,280.64 407.52,285.02 ZM 436.22 175.44 C437.44,176.30 438.99,177.00 439.66,177.00 C446.54,177.00 451.03,168.54 447.85,161.57 C445.39,156.16 439.67,157.81 436.01,164.97 C433.38,170.13 433.45,173.50 436.22,175.44 ZM 336.00 401.03 C336.00,403.07 334.07,401.85 332.00,398.50 C330.81,396.58 329.42,395.00 328.92,395.00 C327.24,395.00 327.96,393.42 331.10,390.21 L 334.19 387.05 L 338.00 390.25 L 341.81 393.45 L 338.91 396.76 C337.31,398.58 336.00,400.50 336.00,401.03 ZM 321.55 352.91 C320.69,354.31 319.30,354.30 318.43,352.89 C317.57,351.49 320.17,349.77 321.35,350.95 C321.83,351.43 321.92,352.31 321.55,352.91 Z" fill="rgb(54,46,40)"/>
<path d="M 173.04 212.42 C171.96,214.94 170.91,217.00 170.70,217.00 C169.40,217.00 169.00,214.67 168.98,207.08 C168.95,197.01 166.95,191.53 162.03,188.02 C155.72,183.53 147.82,184.42 138.83,190.63 L 135.16 193.16 L 130.54 191.12 C127.11,189.60 125.30,189.32 123.50,190.00 C122.16,190.51 120.88,190.60 120.65,190.21 C120.42,189.82 120.26,185.90 120.29,181.50 C120.35,172.61 118.91,168.66 114.27,164.98 C111.82,163.03 110.67,162.84 104.31,163.31 C92.90,164.15 85.08,168.04 76.86,177.68 C78.23,175.84 79.48,174.17 80.24,173.15 C81.75,171.14 85.30,165.68 88.12,161.00 C103.55,135.44 115.35,121.45 134.00,106.60 C170.00,77.92 211.71,63.90 256.96,65.25 C275.58,65.80 287.76,67.94 305.00,73.69 C316.95,77.67 339.19,88.05 347.74,93.65 C369.79,108.07 393.65,131.53 404.76,149.24 C403.54,147.38 402.16,145.62 401.35,144.95 C395.32,139.93 376.81,137.73 370.29,141.27 C366.77,143.18 362.00,150.41 362.00,153.84 C362.00,156.22 360.51,156.76 359.70,154.67 C359.42,153.94 357.72,152.63 355.91,151.75 C352.79,150.24 352.38,150.28 348.06,152.45 C344.52,154.23 341.27,154.85 333.50,155.21 C325.98,155.57 322.48,156.21 319.39,157.79 C314.12,160.49 307.30,168.09 303.14,175.89 C301.35,179.25 299.69,182.00 299.46,182.00 C299.23,182.00 298.08,180.09 296.91,177.75 C290.85,165.67 283.17,162.50 268.27,165.95 C263.45,167.07 257.39,168.23 254.82,168.54 C252.25,168.85 249.01,169.99 247.63,171.07 C244.42,173.60 241.47,181.52 240.00,191.61 C239.26,196.66 238.11,200.47 236.85,202.04 L 234.86 204.50 L 235.31 190.66 C235.69,178.91 236.05,176.42 237.72,174.16 C243.59,166.22 244.93,159.59 241.92,153.34 C238.21,145.66 229.19,144.00 219.62,149.25 C211.96,153.45 210.18,161.98 215.01,171.24 C217.50,176.03 217.50,177.24 214.99,179.51 C213.04,181.27 212.91,181.26 210.68,179.16 C209.41,177.97 207.70,177.00 206.89,177.00 C204.29,177.00 203.00,174.74 203.00,170.20 C203.00,166.57 202.46,165.30 199.89,162.90 C198.19,161.31 195.78,160.00 194.54,160.00 C190.35,160.00 185.65,164.21 182.50,170.79 C180.70,174.55 177.60,178.81 174.75,181.42 C169.24,186.48 168.90,188.53 172.51,194.85 C175.57,200.20 175.74,206.10 173.04,212.42 ZM 427.84 311.75 C425.03,310.83 423.20,313.31 419.61,321.68 C404.96,355.76 380.55,385.05 351.00,404.00 C317.42,425.53 280.49,435.46 240.88,433.62 C218.14,432.56 199.61,428.51 181.08,420.55 C156.76,410.10 141.35,400.63 126.75,387.16 C115.75,377.01 111.65,374.05 108.90,374.65 C109.25,374.53 109.61,374.43 109.98,374.35 C111.64,374.02 113.00,373.24 113.00,372.61 C113.00,371.98 114.95,369.22 117.33,366.48 C119.71,363.74 123.63,358.17 126.03,354.10 C129.86,347.62 130.54,346.93 131.45,348.58 C137.70,359.79 149.52,360.78 158.45,350.84 L 163.06 345.71 L 166.72 349.99 C171.07,355.07 175.21,357.00 181.76,357.00 C185.74,357.00 187.88,356.20 193.89,352.50 C202.06,347.47 202.33,347.40 207.35,349.50 C214.92,352.67 225.48,350.79 231.26,345.25 L 234.02 342.61 L 239.06 344.42 C246.01,346.92 253.55,346.22 259.07,342.57 C263.12,339.89 263.48,339.83 269.11,340.94 C277.99,342.69 283.99,340.63 287.14,334.75 C287.75,333.59 288.49,325.74 288.77,317.30 C289.22,303.91 289.96,299.63 291.55,301.21 C291.77,301.44 292.19,306.92 292.47,313.39 C293.05,326.83 294.26,330.31 299.65,333.98 C306.08,338.35 313.58,336.70 322.25,328.99 L 326.50 325.22 L 330.81 327.74 C334.53,329.92 335.95,330.19 341.05,329.73 C345.72,329.31 347.82,328.52 351.02,325.99 C354.35,323.35 355.63,322.89 358.28,323.41 C371.18,325.92 374.87,325.20 383.90,318.42 L 389.78 313.99 L 394.14 316.48 C401.37,320.62 408.13,319.41 416.59,312.48 C421.14,308.76 423.00,308.15 423.00,310.41 C423.00,311.30 423.70,311.63 424.90,311.32 C425.59,311.14 426.72,311.32 427.84,311.75 ZM 194.32 316.54 C189.70,321.16 187.01,315.94 187.01,302.31 L 187.00 294.12 L 193.05 290.89 C200.01,287.19 202.51,284.16 203.95,277.72 C206.62,265.79 198.26,253.00 187.80,253.00 C182.61,253.00 173.06,258.15 167.20,264.11 C164.29,267.08 159.84,272.99 157.31,277.25 L 152.72 285.00 L 144.78 277.42 C134.29,267.39 132.32,266.60 117.77,266.54 L 106.04 266.50 L 109.49 263.04 L 112.95 259.59 L 117.72 261.30 C126.08,264.29 131.22,263.09 136.42,256.91 L 139.08 253.76 L 138.46 240.13 C137.84,226.57 137.85,226.49 140.39,223.50 L 142.94 220.50 L 142.88 232.00 C142.81,244.08 143.67,247.93 147.32,251.85 C153.83,258.84 162.05,258.65 172.27,251.25 L 177.04 247.80 L 181.04 249.40 C189.50,252.79 199.35,250.59 208.17,243.36 L 213.35 239.11 L 216.25 241.56 C219.30,244.12 221.24,244.79 227.00,245.23 L 230.49 245.50 L 231.55 253.00 C233.09,263.94 236.05,268.00 242.47,268.00 C250.10,267.99 255.27,260.98 257.11,248.18 C258.09,241.40 258.27,238.71 259.68,237.65 C260.61,236.95 262.07,236.97 264.65,236.99 C265.17,236.99 265.74,237.00 266.36,237.00 C272.52,237.00 274.65,236.52 279.78,233.95 C283.13,232.28 287.14,229.43 288.69,227.62 C290.23,225.81 292.51,223.13 293.74,221.67 C296.90,217.92 299.90,218.29 304.49,222.99 C306.64,225.19 310.28,227.71 312.60,228.59 C316.44,230.06 317.28,230.06 322.15,228.63 C325.62,227.62 329.32,225.47 332.68,222.52 L 337.86 217.97 L 341.57 220.48 C344.32,222.35 346.58,223.00 350.30,223.00 C360.82,223.00 367.15,216.33 373.99,198.02 L 376.42 191.54 L 377.68 197.78 C380.26,210.50 385.29,215.32 396.00,215.33 C402.41,215.33 404.57,214.36 411.86,208.19 C415.57,205.05 417.61,203.94 418.47,204.58 C424.82,209.27 425.28,209.43 432.54,209.21 C433.99,209.17 435.16,209.15 436.12,209.17 C435.96,209.18 435.79,209.19 435.62,209.20 L 431.50 209.50 L 431.78 216.00 C432.35,229.20 433.87,237.39 436.11,239.25 C436.61,239.66 437.15,239.99 437.72,240.26 C434.85,239.57 433.92,239.86 431.08,241.96 C428.05,244.21 426.67,244.50 419.08,244.53 C412.06,244.56 409.69,244.99 406.04,246.91 C396.38,251.99 388.88,262.45 384.48,277.00 C382.75,282.74 380.35,286.33 378.87,285.42 C377.15,284.36 378.11,273.23 381.14,259.00 C386.66,233.08 386.84,231.79 385.39,228.89 C383.72,225.52 379.02,223.59 374.56,224.42 C369.90,225.30 364.81,231.37 361.35,240.21 L 358.63 247.14 L 357.44 242.47 C356.79,239.91 355.06,236.61 353.60,235.15 C351.21,232.76 350.23,232.50 343.72,232.54 C335.30,232.58 330.91,234.46 327.96,239.30 C325.32,243.63 325.50,248.76 328.50,254.40 C331.58,260.19 331.58,260.24 328.48,267.86 C327.09,271.28 325.27,277.09 324.42,280.79 C321.61,293.11 320.95,295.00 319.46,295.00 C318.28,295.00 318.00,293.13 317.99,285.25 C317.99,277.61 317.60,274.92 316.22,272.82 C313.46,268.64 307.03,264.00 303.99,264.00 C299.95,264.00 293.33,266.59 288.74,269.96 C284.74,272.90 284.68,272.91 282.10,271.09 C277.44,267.81 275.49,267.71 272.07,270.59 C267.59,274.37 265.08,279.83 261.81,292.99 C259.12,303.79 256.98,308.31 255.33,306.66 C254.93,306.27 255.60,301.12 256.81,295.22 C259.58,281.73 259.56,280.82 256.41,277.08 C254.33,274.60 253.05,274.00 249.88,274.00 C247.71,274.00 244.73,274.79 243.26,275.75 C241.41,276.96 237.66,277.68 231.05,278.09 C219.83,278.78 215.87,280.47 208.62,287.66 C203.39,292.84 199.07,301.09 197.02,309.79 C196.34,312.70 195.12,315.73 194.32,316.54 ZM 227.76 138.48 C233.42,136.22 239.60,129.14 244.43,119.42 C246.60,115.06 249.26,110.49 250.36,109.25 C253.95,105.19 255.45,106.29 261.01,117.11 C269.09,132.84 274.22,137.47 286.32,139.97 C293.67,141.49 300.96,140.59 307.82,137.32 C314.36,134.20 317.86,129.61 322.05,118.64 C323.76,114.16 326.50,107.62 328.15,104.10 C333.00,93.73 331.88,92.44 315.08,89.02 C302.14,86.38 293.63,86.48 276.00,89.50 C258.48,92.50 247.80,92.63 234.40,90.03 C228.84,88.95 220.72,87.77 216.34,87.41 C204.15,86.39 179.81,89.79 176.65,92.95 C174.88,94.72 175.67,100.76 178.26,105.24 C179.62,107.58 181.53,111.97 182.50,115.00 C184.49,121.17 188.28,129.11 191.21,133.27 C193.28,136.21 197.59,138.83 202.50,140.13 C207.30,141.41 223.02,140.38 227.76,138.48 ZM 71.89 309.93 C71.74,308.77 71.59,307.52 71.43,306.17 C69.65,290.61 65.12,263.03 64.02,261.08 C63.21,259.62 61.79,261.57 60.67,264.70 C61.91,260.84 63.94,256.00 67.04,249.33 C71.67,239.36 75.39,239.67 78.95,250.33 C82.50,260.98 86.88,266.00 94.00,267.60 C99.45,268.83 99.42,269.10 93.27,272.98 C85.95,277.61 80.54,283.01 74.85,291.34 L 70.65 297.49 L 71.69 308.01 C71.76,308.68 71.83,309.31 71.89,309.93 ZM 303.25 377.11 L 308.99 373.72 L 303.75 371.29 C297.10,368.21 295.00,366.30 295.00,363.31 C295.00,362.01 294.33,360.68 293.50,360.36 C292.67,360.05 291.98,358.82 291.96,357.64 C291.93,356.00 291.57,356.31 290.42,358.96 C287.91,364.75 284.51,368.38 279.15,371.00 C276.33,372.38 274.02,373.79 274.02,374.14 C274.01,374.49 275.15,375.07 276.56,375.43 C279.73,376.22 287.63,383.39 289.66,387.31 L 291.17 390.22 L 294.34 385.36 C294.39,385.28 294.44,385.21 294.50,385.13 C293.43,387.21 293.04,389.43 293.46,391.62 C293.81,393.48 294.28,395.00 294.51,395.00 C294.74,395.00 295.41,393.19 296.00,390.99 C297.46,385.58 302.32,380.29 308.17,377.73 C310.83,376.57 313.00,375.26 313.00,374.81 C313.00,373.69 312.17,373.80 307.00,375.59 C305.42,376.14 303.95,376.78 302.60,377.51 C302.82,377.37 303.04,377.24 303.25,377.11 ZM 109.39 224.75 C108.60,225.99 107.13,227.00 106.12,227.00 C103.66,227.00 102.82,219.98 104.06,209.94 C105.46,198.70 106.27,197.32 112.24,196.04 C115.02,195.45 117.47,195.13 117.68,195.35 C117.90,195.57 117.63,196.81 117.09,198.12 C116.55,199.43 114.92,205.45 113.46,211.50 C112.01,217.55 110.18,223.51 109.39,224.75 ZM 353.39 280.70 C352.53,284.66 351.19,288.43 350.41,289.07 C350.28,289.18 350.17,289.28 350.06,289.38 C349.76,289.65 349.53,289.85 349.38,289.81 C348.91,289.67 349.08,287.33 349.73,277.95 C349.81,276.84 349.89,275.62 349.98,274.31 C350.91,260.83 351.96,257.16 355.90,253.59 C357.47,252.17 358.00,252.05 358.00,253.10 C357.99,255.49 355.05,273.13 353.39,280.70 ZM 206.01 209.49 C203.32,212.35 199.88,212.73 197.57,210.43 C193.19,206.05 198.69,196.56 205.24,197.19 C208.43,197.49 208.50,197.61 208.44,202.24 C208.39,205.78 207.78,207.60 206.01,209.49 ZM 336.00 401.03 C336.00,400.50 337.31,398.58 338.91,396.76 L 341.81 393.45 L 338.00 390.25 L 334.19 387.05 L 331.10 390.21 C327.96,393.42 327.24,395.00 328.92,395.00 C329.42,395.00 330.81,396.58 332.00,398.50 C334.07,401.85 336.00,403.07 336.00,401.03 ZM 116.98 304.68 C116.96,310.43 116.13,310.99 111.30,308.59 C107.56,306.73 107.09,306.10 107.05,302.95 C106.99,298.69 108.45,297.00 112.16,297.00 C115.51,297.00 117.01,299.39 116.98,304.68 ZM 408.14 155.22 C409.99,158.62 412.05,160.20 413.66,159.51 C412.67,160.31 411.97,162.16 411.92,164.11 C411.78,170.54 407.65,177.98 405.45,175.78 C405.09,175.42 405.56,170.60 406.49,165.06 ZM 363.53 175.59 C362.72,177.53 361.08,180.33 359.89,181.81 L 357.72 184.50 L 358.32 177.78 C359.01,170.03 361.26,164.78 363.51,165.64 C365.42,166.38 365.43,171.03 363.53,175.59 ZM 270.17 200.35 C269.17,201.26 268.07,202.00 267.73,202.00 C266.42,202.00 265.84,199.77 266.49,197.20 C267.32,193.88 268.81,192.00 270.62,192.00 C272.71,192.00 272.37,198.35 270.17,200.35 ZM 330.17 189.35 C327.48,191.78 326.00,191.37 326.00,188.19 C326.00,184.44 328.07,181.71 330.28,182.55 C332.54,183.42 332.48,187.26 330.17,189.35 ZM 338.20 400.80 C339.86,402.46 339.98,402.41 343.70,398.80 C347.60,395.02 347.81,394.00 344.69,394.00 C341.50,394.00 336.57,399.17 338.20,400.80 ZM 414.44 279.78 C412.24,282.92 410.00,282.63 410.00,279.20 C410.00,275.98 411.60,274.00 414.20,274.00 C416.43,274.00 416.55,276.77 414.44,279.78 ZM 227.96 313.07 C226.63,315.56 224.31,315.55 223.51,313.04 C222.67,310.37 224.63,307.00 227.04,307.00 C229.24,307.00 229.68,309.86 227.96,313.07 ZM 101.14 336.03 C98.77,338.01 92.57,338.74 91.60,337.16 C91.32,336.70 93.35,335.80 96.12,335.16 C102.98,333.58 103.90,333.74 101.14,336.03 ZM 321.55 352.91 C321.92,352.31 321.83,351.43 321.35,350.95 C320.17,349.77 317.57,351.49 318.43,352.89 C319.30,354.30 320.69,354.31 321.55,352.91 ZM 115.32 388.36 C122.87,395.64 133.60,404.62 141.93,410.19 C132.83,404.11 122.50,395.45 115.32,388.36 ZM 443.74 237.57 C443.67,234.94 443.21,230.02 442.65,225.07 C442.67,225.28 442.70,225.50 442.73,225.71 C443.44,231.51 443.84,235.25 443.74,237.57 ZM 94.24 135.20 C88.91,142.29 81.93,154.03 76.13,165.00 C81.87,154.10 88.79,142.43 94.17,135.28 C95.72,133.21 97.44,131.06 99.27,128.88 C97.46,131.04 95.77,133.15 94.24,135.20 ZM 415.43 154.66 C415.44,151.40 414.63,147.13 413.20,144.35 C414.80,147.47 415.57,151.50 415.43,154.66 ZM 69.73 187.25 C68.24,189.43 67.24,190.80 66.56,191.52 L 66.57 191.50 C67.06,190.84 68.28,189.21 69.73,187.25 ZM 59.00 273.59 C59.00,273.63 59.00,273.67 59.00,273.71 C59.00,279.75 60.48,288.99 62.66,298.34 C60.49,289.06 59.00,279.91 59.00,274.00 C59.00,273.86 59.00,273.73 59.00,273.59 ZM 441.06 240.93 C441.86,240.88 442.57,240.66 443.06,240.25 C442.63,240.81 441.98,240.99 441.06,240.93 ZM 440.51 210.95 C440.48,210.83 440.45,210.73 440.42,210.64 C440.42,210.66 440.43,210.68 440.44,210.69 C440.46,210.75 440.49,210.84 440.51,210.95 ZM 429.21 312.41 C429.31,312.47 429.40,312.53 429.50,312.59 C429.40,312.53 429.30,312.47 429.21,312.41 Z" fill="rgb(206,109,71)"/>
<path d="M 39.14 278.46 C49.15,273.37 57.03,263.02 62.45,247.84 L 65.78 238.50 L 73.66 238.21 L 81.53 237.93 L 82.78 244.54 C84.79,255.12 89.27,262.06 95.00,263.47 C99.01,264.45 107.86,259.38 112.00,253.71 C115.04,249.56 115.63,249.16 116.50,250.66 C119.16,255.24 121.90,257.00 126.40,257.00 C133.26,257.00 134.00,255.33 134.02,239.53 C134.04,229.04 134.40,225.72 135.88,222.50 C138.21,217.43 140.98,214.97 144.63,214.70 L 147.50 214.50 L 148.00 229.00 C148.58,245.93 149.82,249.27 156.23,251.19 C161.93,252.90 166.76,251.03 172.50,244.90 C175.00,242.23 176.30,240.83 177.75,240.65 C179.33,240.46 181.10,241.75 184.82,244.46 L 184.90 244.52 C191.03,249.00 196.81,247.23 206.52,237.91 L 212.92 231.76 L 217.48 235.78 C223.36,240.95 225.95,241.57 230.96,239.02 C233.14,237.91 235.39,237.00 235.96,237.00 C236.62,237.00 237.00,241.02 237.00,247.89 C237.00,256.82 237.31,259.14 238.75,260.80 C243.26,266.02 248.94,263.30 251.50,254.70 C252.86,250.15 254.94,231.65 254.98,223.75 C255.01,219.98 256.61,220.29 257.95,224.34 C259.55,229.20 264.04,233.06 268.84,233.71 C274.19,234.42 280.22,230.94 286.71,223.38 C291.50,217.79 301.28,210.00 303.50,210.00 C304.15,210.00 305.21,211.76 305.85,213.91 C307.13,218.17 312.55,223.60 316.52,224.59 C317.88,224.94 320.24,224.91 321.75,224.53 C325.15,223.68 333.20,215.49 335.97,210.05 C338.50,205.10 339.58,204.95 340.42,209.44 C341.16,213.39 345.48,217.51 349.90,218.48 C351.91,218.92 354.08,218.49 356.76,217.12 C362.09,214.40 366.81,205.25 372.50,186.56 C377.57,169.92 379.34,166.00 381.83,166.00 C386.22,166.00 387.12,171.58 384.48,182.50 C380.78,197.81 384.04,208.98 392.66,210.60 C400.55,212.08 407.01,208.39 413.16,198.91 C414.91,196.21 416.62,194.00 416.98,194.00 C417.33,194.00 419.03,196.00 420.75,198.45 C424.40,203.63 429.41,205.60 434.93,204.02 C440.27,202.49 442.27,200.68 446.38,193.64 C448.52,189.99 450.65,187.00 451.11,187.00 C451.58,187.00 452.82,188.69 453.87,190.75 C456.42,195.74 459.04,197.97 463.13,198.62 C469.26,199.60 472.66,196.19 479.79,181.89 C482.32,176.82 484.65,171.55 485.85,168.30 C485.50,169.81 485.05,171.48 484.53,173.14 C483.08,177.74 481.19,183.75 480.34,186.50 C478.68,191.83 476.29,195.30 474.87,194.42 C474.39,194.12 474.00,194.36 474.00,194.94 C474.00,195.52 473.36,196.00 472.58,196.00 C471.80,196.00 471.02,196.35 470.83,196.79 C470.32,198.01 461.82,202.64 458.75,203.38 C455.44,204.17 455.40,204.79 457.43,223.50 C460.14,248.54 461.46,274.53 460.25,279.19 C457.89,288.26 443.87,328.42 440.53,335.64 C433.99,349.81 417.10,375.93 406.03,389.03 C391.35,406.40 365.19,425.85 339.50,438.50 C314.95,450.60 292.31,456.13 255.60,458.99 C248.51,459.55 242.44,459.95 242.10,459.89 C241.77,459.83 236.86,459.18 231.19,458.45 C207.50,455.41 189.78,451.08 172.08,444.03 C143.58,432.68 124.96,419.78 96.00,391.33 C89.12,384.58 80.80,377.26 77.50,375.08 C74.20,372.89 70.49,369.60 69.27,367.76 C68.04,365.92 65.67,359.04 64.00,352.46 C62.33,345.88 58.04,332.77 54.46,323.32 C50.89,313.87 46.82,301.50 45.42,295.82 C44.02,290.14 42.53,285.15 42.12,284.73 C41.70,284.31 38.92,283.74 35.93,283.47 C22.42,282.26 19.55,281.83 17.59,280.74 C16.44,280.10 15.11,279.69 14.62,279.83 C13.03,280.29 10.12,276.85 10.74,275.24 C11.18,274.10 10.96,273.89 9.92,274.48 C8.81,275.12 8.75,275.02 9.68,274.01 C10.60,273.02 10.38,272.08 8.68,269.79 C8.32,269.30 8.00,268.69 7.71,267.98 C10.05,272.54 16.30,277.99 21.11,279.56 C26.43,281.29 34.54,280.79 39.14,278.46 ZM 468.20 151.99 L 467.95 137.00 L 465.05 137.00 C463.39,137.00 460.84,138.11 459.07,139.60 C456.33,141.90 455.63,142.07 452.84,141.10 C448.73,139.66 442.73,139.71 437.62,141.21 C431.16,143.11 422.95,151.94 420.15,160.00 C415.47,173.47 414.74,175.15 412.31,178.04 C409.36,181.55 407.23,181.75 403.55,178.86 L 400.82 176.71 L 401.52 165.56 C402.21,154.51 402.19,154.38 399.58,151.28 C395.66,146.61 389.66,144.70 380.45,145.16 C373.58,145.51 372.54,145.83 370.44,148.28 C366.93,152.36 366.42,156.93 368.91,161.83 C371.42,166.75 371.50,168.97 369.40,176.04 C367.61,182.06 361.61,189.00 358.19,189.00 C355.33,189.00 353.00,186.36 353.00,183.13 C353.00,181.63 353.89,176.37 354.98,171.45 C357.43,160.36 357.44,159.76 355.14,156.92 L 353.27 154.62 L 348.36 157.77 C343.70,160.76 343.08,160.89 336.38,160.33 C326.85,159.53 320.51,161.63 315.25,167.35 C311.13,171.82 305.00,183.59 305.00,187.04 C305.00,189.16 302.15,195.09 299.52,198.45 C297.21,201.40 296.24,199.50 295.01,189.61 C293.64,178.53 292.03,174.60 287.81,172.03 C283.28,169.26 273.75,169.24 269.25,171.99 C267.46,173.08 266.00,174.48 266.00,175.10 C266.00,175.85 264.91,175.99 262.75,175.53 C260.96,175.15 257.73,174.76 255.57,174.67 C252.08,174.52 251.41,174.88 249.67,177.85 C248.59,179.69 246.86,185.32 245.83,190.35 C243.75,200.51 240.62,207.65 237.32,209.76 C235.38,211.00 234.91,210.91 232.94,208.94 C230.82,206.82 230.75,206.17 231.23,192.86 L 231.73 179.00 L 226.88 179.00 C222.10,179.00 222.00,179.07 219.64,183.75 C218.32,186.36 216.48,191.88 215.55,196.00 C214.63,200.12 213.10,205.51 212.16,207.98 C208.83,216.70 199.53,219.56 194.25,213.48 C192.52,211.49 192.00,209.65 192.00,205.58 C192.00,198.56 194.31,195.63 201.51,193.54 C207.26,191.87 208.57,190.06 207.83,184.85 C207.55,182.82 206.81,182.43 202.51,182.00 L 197.52 181.50 L 197.85 173.75 C198.17,166.06 198.16,166.00 195.67,166.00 C191.15,166.00 189.86,167.20 186.53,174.50 C184.32,179.35 182.06,182.61 179.62,184.47 C175.33,187.75 174.97,190.68 178.45,193.95 C180.17,195.57 180.78,197.03 180.49,198.88 C177.80,216.27 176.55,220.10 172.97,222.02 C171.49,222.81 170.24,222.75 168.23,221.79 C165.53,220.49 165.49,220.36 164.99,208.49 C164.30,192.29 163.45,191.00 153.51,191.00 C148.84,191.00 147.58,191.47 143.34,194.83 C140.68,196.94 137.88,199.42 137.13,200.33 C135.05,202.86 133.41,202.36 131.13,198.50 C128.73,194.42 127.15,194.14 124.24,197.25 C121.51,200.17 120.32,203.43 118.96,211.73 C117.38,221.34 115.28,227.39 112.72,229.74 C107.34,234.66 101.72,233.37 99.93,226.79 C97.77,218.87 100.65,197.19 104.25,194.21 C104.94,193.64 107.20,192.86 109.27,192.47 C113.49,191.69 115.54,189.37 117.08,183.68 C118.43,178.68 116.87,173.91 112.71,170.41 C109.91,168.05 108.96,167.82 103.97,168.27 C92.12,169.34 81.43,177.58 72.53,192.49 C66.35,202.85 64.37,207.18 62.46,214.50 C61.74,217.25 60.65,220.80 60.05,222.38 C58.96,225.23 58.92,225.24 56.87,223.38 C53.07,219.94 49.86,213.28 49.67,208.45 C49.52,204.40 49.87,203.53 52.50,201.47 C60.85,194.91 61.19,193.56 55.98,187.97 C52.43,184.18 46.72,183.97 39.50,187.38 C31.02,191.38 27.99,196.10 28.01,205.32 C28.03,215.33 34.57,224.92 45.64,231.17 C48.69,232.88 51.42,234.93 51.72,235.71 C52.42,237.54 46.62,243.60 41.79,246.09 C35.83,249.16 30.13,248.63 24.02,244.42 C19.34,241.20 18.53,240.95 16.02,241.99 C12.49,243.45 8.44,247.67 7.06,251.32 C6.59,252.56 6.29,254.22 6.14,256.03 C6.28,252.46 6.91,249.13 8.05,247.19 C9.12,245.37 9.51,244.19 8.90,244.56 C8.11,245.05 8.09,244.69 8.84,243.30 C10.43,240.32 17.76,237.32 19.84,238.80 C27.44,244.19 36.15,245.70 39.35,242.17 C40.26,241.17 41.00,239.58 41.00,238.64 C41.00,235.82 36.40,227.70 32.99,224.50 C27.81,219.64 25.28,212.70 25.13,202.92 C25.05,198.29 25.33,193.98 25.75,193.35 C28.12,189.72 39.07,182.73 45.36,180.82 L 52.26 178.73 L 58.12 166.11 C70.07,140.41 76.02,131.49 94.19,111.98 C126.45,77.36 145.60,64.74 187.54,50.44 C194.03,48.23 211.79,44.20 221.00,42.85 C232.92,41.10 266.87,41.39 280.22,43.36 C314.14,48.36 347.04,62.00 374.17,82.28 C390.30,94.35 403.32,107.16 417.58,125.00 C427.00,136.78 427.78,137.50 431.04,137.41 C437.33,137.26 453.40,135.00 459.75,133.37 C465.51,131.90 466.21,131.91 468.49,133.40 C472.56,136.07 473.13,144.01 469.51,147.63 C468.83,148.31 468.42,149.57 468.20,151.99 ZM 72.78 183.15 C74.06,181.44 75.52,179.47 76.86,177.68 C85.08,168.04 92.90,164.15 104.31,163.31 C110.67,162.84 111.82,163.03 114.27,164.98 C118.91,168.66 120.35,172.61 120.29,181.50 C120.26,185.90 120.42,189.82 120.65,190.21 C120.88,190.60 122.16,190.51 123.50,190.00 C125.30,189.32 127.11,189.60 130.54,191.12 L 135.16 193.16 L 138.83 190.63 C147.82,184.42 155.72,183.53 162.03,188.02 C166.95,191.53 168.95,197.01 168.98,207.08 C169.00,214.67 169.40,217.00 170.70,217.00 C170.91,217.00 171.96,214.94 173.04,212.42 C175.74,206.10 175.57,200.20 172.51,194.85 C168.90,188.53 169.24,186.48 174.75,181.42 C177.60,178.81 180.70,174.55 182.50,170.79 C185.65,164.21 190.35,160.00 194.54,160.00 C195.78,160.00 198.19,161.31 199.89,162.90 C202.46,165.30 203.00,166.57 203.00,170.20 C203.00,174.74 204.29,177.00 206.89,177.00 C207.70,177.00 209.41,177.97 210.68,179.16 C212.91,181.26 213.04,181.27 214.99,179.51 C217.50,177.24 217.50,176.03 215.01,171.24 C210.18,161.98 211.96,153.45 219.62,149.25 C229.19,144.00 238.21,145.66 241.92,153.34 C244.93,159.59 243.59,166.22 237.72,174.16 C236.05,176.42 235.69,178.91 235.31,190.66 L 234.86 204.50 L 236.85 202.04 C238.11,200.47 239.26,196.66 240.00,191.61 C241.47,181.52 244.42,173.60 247.63,171.07 C249.01,169.99 252.25,168.85 254.82,168.54 C257.39,168.23 263.45,167.07 268.27,165.95 C283.17,162.50 290.85,165.67 296.91,177.75 C298.08,180.09 299.23,182.00 299.46,182.00 C299.69,182.00 301.35,179.25 303.14,175.89 C307.30,168.09 314.12,160.49 319.39,157.79 C322.48,156.21 325.98,155.57 333.50,155.21 C341.27,154.85 344.52,154.23 348.06,152.45 C352.38,150.28 352.79,150.24 355.91,151.75 C357.72,152.63 359.42,153.94 359.70,154.67 C360.51,156.76 362.00,156.22 362.00,153.84 C362.00,150.41 366.77,143.18 370.29,141.27 C376.81,137.73 395.32,139.93 401.35,144.95 C402.16,145.62 403.54,147.38 404.76,149.24 C405.93,151.11 406.96,152.91 407.83,154.63 C407.93,154.83 408.04,155.03 408.14,155.22 L 406.49 165.06 C405.56,170.60 405.09,175.42 405.45,175.78 C407.65,177.98 411.78,170.54 411.92,164.11 C411.97,162.16 412.67,160.31 413.66,159.51 C413.93,159.39 414.18,159.22 414.42,158.98 C415.10,158.30 415.42,156.67 415.43,154.66 C415.57,151.50 414.80,147.47 413.20,144.35 C407.50,133.28 390.75,114.81 373.50,100.56 C338.97,72.04 307.22,59.76 261.99,57.41 C238.94,56.21 205.46,60.10 187.64,66.06 C178.23,69.20 154.05,81.25 144.11,87.74 L 144.10 87.75 C130.44,96.69 111.94,113.78 99.27,128.88 C97.44,131.06 95.72,133.21 94.17,135.28 C88.79,142.43 81.87,154.10 76.13,165.00 C69.87,176.84 64.99,187.78 65.04,191.00 C65.09,193.44 65.12,193.45 66.56,191.52 C67.24,190.80 68.24,189.43 69.73,187.25 C70.69,185.96 71.75,184.54 72.78,183.15 ZM 278.00 442.00 C317.05,436.08 352.94,418.58 383.93,390.37 C399.56,376.13 413.30,356.98 425.31,332.69 C432.54,318.06 433.19,315.01 429.59,312.65 L 429.54 312.62 L 429.52 312.61 L 429.50 312.59 C429.40,312.53 429.31,312.47 429.21,312.41 L 429.21 312.41 C428.72,312.12 428.27,311.89 427.84,311.75 C426.72,311.32 425.59,311.14 424.90,311.32 C423.70,311.63 423.00,311.30 423.00,310.41 C423.00,308.15 421.14,308.76 416.59,312.48 C408.13,319.41 401.37,320.62 394.14,316.48 L 389.78 313.99 L 383.90 318.42 C374.87,325.20 371.18,325.92 358.28,323.41 C355.63,322.89 354.35,323.35 351.02,325.99 C347.82,328.52 345.72,329.31 341.05,329.73 C335.95,330.19 334.53,329.92 330.81,327.74 L 326.50 325.22 L 322.25 328.99 C313.58,336.70 306.08,338.35 299.65,333.98 C294.26,330.31 293.05,326.83 292.47,313.39 C292.19,306.92 291.77,301.44 291.55,301.21 C289.96,299.63 289.22,303.91 288.77,317.30 C288.49,325.74 287.75,333.59 287.14,334.75 C283.99,340.63 277.99,342.69 269.11,340.94 C263.48,339.83 263.12,339.89 259.07,342.57 C253.55,346.22 246.01,346.92 239.06,344.42 L 234.02 342.61 L 231.26 345.25 C225.48,350.79 214.92,352.67 207.35,349.50 C202.33,347.40 202.06,347.47 193.89,352.50 C187.88,356.20 185.74,357.00 181.76,357.00 C175.21,357.00 171.07,355.07 166.72,349.99 L 163.06 345.71 L 158.45 350.84 C149.52,360.78 137.70,359.79 131.45,348.58 C130.54,346.93 129.86,347.62 126.03,354.10 C123.63,358.17 119.71,363.74 117.33,366.48 C114.95,369.22 113.00,371.98 113.00,372.61 C113.00,373.24 111.64,374.02 109.98,374.35 C109.61,374.43 109.25,374.53 108.90,374.65 C108.60,374.72 108.32,374.83 108.04,374.98 C106.92,375.58 106.00,376.55 106.00,377.13 C106.00,378.66 109.82,383.06 115.32,388.36 C122.50,395.45 132.83,404.11 141.93,410.19 C167.46,427.26 198.50,438.80 230.00,442.92 C234.68,443.53 239.85,444.21 241.50,444.43 C246.96,445.14 265.31,443.92 278.00,442.00 ZM 97.38 373.49 C116.35,368.55 125.49,354.34 130.48,322.00 C132.30,310.17 133.33,307.00 135.35,307.00 C138.39,307.00 139.33,315.11 138.12,331.10 C136.85,347.94 137.34,350.44 142.31,352.82 C144.64,353.93 145.79,353.94 149.21,352.83 C155.35,350.84 156.68,348.21 158.47,334.50 C160.61,318.13 162.88,306.94 164.60,304.25 C166.24,301.70 171.61,300.96 170.67,303.41 C169.48,306.53 167.84,333.66 168.48,339.67 C169.13,345.73 169.41,346.28 173.20,349.03 C178.11,352.59 182.73,353.58 187.32,352.06 C191.55,350.66 197.86,344.71 199.20,340.85 C200.47,337.20 201.92,337.26 205.56,341.09 C209.21,344.93 215.04,348.00 218.67,348.00 C220.71,348.00 222.76,346.58 226.56,342.57 C229.39,339.58 232.27,335.75 232.97,334.07 C234.54,330.28 235.54,330.21 237.38,333.75 C240.86,340.44 246.69,342.99 252.70,340.48 C257.54,338.46 259.76,336.38 262.20,331.60 L 264.19 327.70 L 266.38 331.60 C269.28,336.79 272.74,338.42 277.88,337.03 C280.03,336.45 282.10,335.20 282.48,334.24 C282.85,333.28 283.39,326.42 283.67,319.00 C283.95,311.58 284.62,304.04 285.16,302.27 C286.39,298.23 290.38,295.00 294.13,295.00 L 297.00 295.00 L 297.00 324.24 L 300.88 328.12 C305.12,332.35 307.87,332.92 313.28,330.65 C316.76,329.20 323.41,322.39 325.21,318.45 C326.71,315.14 327.69,315.36 330.15,319.54 C335.72,328.98 346.10,327.80 353.14,316.94 C354.90,314.22 356.47,312.00 356.63,312.00 C356.79,312.00 358.70,313.90 360.87,316.23 C364.19,319.79 365.42,320.45 368.68,320.45 C374.67,320.45 381.44,315.93 385.99,308.90 L 389.82 302.97 L 391.98 306.47 C399.46,318.57 411.63,315.81 419.41,300.25 C420.85,297.36 422.21,295.00 422.43,295.00 C422.64,295.00 423.80,297.01 424.99,299.48 C432.19,314.34 444.12,311.29 452.25,292.50 C455.65,284.65 458.50,273.75 457.70,271.66 C456.70,269.05 455.19,269.67 450.79,274.50 C447.85,277.73 445.92,279.00 443.97,279.00 C439.28,279.00 438.61,277.08 439.53,266.22 C439.99,260.87 440.39,254.25 440.43,251.50 C440.49,246.87 440.31,246.48 437.96,246.20 C436.48,246.03 433.86,246.96 431.71,248.42 C428.36,250.69 427.11,250.92 418.75,250.79 C411.94,250.69 408.68,251.08 406.40,252.28 C400.17,255.53 394.26,264.34 390.50,276.00 C387.90,284.04 385.31,288.75 382.43,290.64 C380.02,292.21 379.74,292.20 377.19,290.30 C373.08,287.23 373.04,277.80 377.07,258.50 C383.08,229.77 383.11,229.00 378.41,229.00 C376.68,229.00 374.45,230.31 371.97,232.79 C367.42,237.34 366.21,241.16 362.03,264.07 C358.62,282.73 356.66,289.48 353.69,292.75 C350.98,295.74 347.46,295.63 345.40,292.49 C344.01,290.36 343.87,288.29 344.47,278.58 C345.33,264.91 344.90,263.00 341.02,263.00 C335.66,263.00 332.38,269.14 327.48,288.33 C324.59,299.63 318.32,304.48 314.38,298.46 C313.01,296.36 312.83,294.41 313.37,287.21 C314.18,276.26 312.52,272.00 306.90,270.61 C300.76,269.09 296.57,270.57 290.10,276.57 C283.76,282.44 282.92,282.46 279.93,276.86 C279.19,275.49 278.04,274.98 276.21,275.19 C272.61,275.61 269.71,281.01 267.53,291.35 C264.19,307.20 259.46,313.90 253.50,311.18 C251.32,310.19 251.00,309.40 251.00,305.08 C251.00,302.36 251.70,297.11 252.55,293.43 C253.41,289.74 253.97,285.33 253.80,283.61 C253.54,280.96 253.05,280.46 250.46,280.20 C248.46,280.01 246.11,280.79 243.60,282.49 C240.16,284.83 239.44,284.97 236.26,283.92 C231.52,282.36 224.22,283.35 218.33,286.34 C210.18,290.49 206.42,296.02 202.56,309.51 C200.59,316.37 199.26,319.16 196.91,321.31 C192.94,324.94 188.58,324.69 185.60,320.67 C183.73,318.15 183.50,316.51 183.54,305.44 C183.59,291.27 184.59,288.80 191.26,286.52 C196.49,284.73 197.57,283.61 198.99,278.52 C200.89,271.73 199.57,265.37 195.38,261.18 C192.23,258.03 191.57,257.79 187.36,258.26 C181.50,258.92 172.93,264.72 167.77,271.50 C165.68,274.25 161.70,280.90 158.93,286.27 C156.16,291.65 153.51,295.81 153.04,295.52 C152.57,295.24 150.81,292.56 149.13,289.57 C141.97,276.90 136.00,272.90 123.13,272.20 C108.59,271.40 96.17,275.61 87.83,284.17 C73.44,298.94 73.57,320.64 88.09,328.04 C95.74,331.95 103.61,329.67 108.73,322.08 C112.04,317.17 111.70,314.34 107.50,311.87 C97.48,305.96 105.04,289.53 116.46,292.40 C120.25,293.35 121.27,298.74 120.14,311.84 C119.09,324.13 117.93,327.02 111.17,334.25 C101.70,344.38 91.60,345.84 84.59,338.10 C82.19,335.44 79.60,335.44 75.88,338.08 C69.34,342.74 66.46,355.26 70.26,362.50 C72.90,367.55 78.53,372.18 83.69,373.57 C89.99,375.27 90.57,375.26 97.38,373.49 ZM 443.67 239.43 C443.75,239.20 443.77,238.54 443.74,237.57 C443.84,235.25 443.44,231.51 442.73,225.71 C442.70,225.50 442.67,225.28 442.65,225.07 C441.95,219.01 441.08,212.92 440.51,210.95 C440.49,210.84 440.46,210.75 440.44,210.69 C440.43,210.68 440.42,210.66 440.42,210.64 C440.41,210.63 440.41,210.61 440.40,210.60 C439.93,209.37 438.89,209.01 436.12,209.17 C435.16,209.15 433.99,209.17 432.54,209.21 C425.28,209.43 424.82,209.27 418.47,204.58 C417.61,203.94 415.57,205.05 411.86,208.19 C404.57,214.36 402.41,215.33 396.00,215.33 C385.29,215.32 380.26,210.50 377.68,197.78 L 376.42 191.54 L 373.99 198.02 C367.15,216.33 360.82,223.00 350.30,223.00 C346.58,223.00 344.32,222.35 341.57,220.48 L 337.86 217.97 L 332.68 222.52 C329.32,225.47 325.62,227.62 322.15,228.63 C317.28,230.06 316.44,230.06 312.60,228.59 C310.28,227.71 306.64,225.19 304.49,222.99 C299.90,218.29 296.90,217.92 293.74,221.67 C292.51,223.13 290.23,225.81 288.69,227.62 C287.14,229.43 283.13,232.28 279.78,233.95 C274.65,236.52 272.52,237.00 266.36,237.00 C265.74,237.00 265.17,236.99 264.65,236.99 C262.07,236.97 260.61,236.95 259.68,237.65 C258.27,238.71 258.09,241.40 257.11,248.18 C255.27,260.98 250.10,267.99 242.47,268.00 C236.05,268.00 233.09,263.94 231.55,253.00 L 230.49 245.50 L 227.00 245.23 C221.24,244.79 219.30,244.12 216.25,241.56 L 213.35 239.11 L 208.17 243.36 C199.35,250.59 189.50,252.79 181.04,249.40 L 177.04 247.80 L 172.27 251.25 C162.05,258.65 153.83,258.84 147.32,251.85 C143.67,247.93 142.81,244.08 142.88,232.00 L 142.94 220.50 L 140.39 223.50 C137.85,226.49 137.84,226.57 138.46,240.13 L 139.08 253.76 L 136.42 256.91 C131.22,263.09 126.08,264.29 117.72,261.30 L 112.95 259.59 L 109.49 263.04 L 106.04 266.50 L 117.77 266.54 C132.32,266.60 134.29,267.39 144.78,277.42 L 152.72 285.00 L 157.31 277.25 C159.84,272.99 164.29,267.08 167.20,264.11 C173.06,258.15 182.61,253.00 187.80,253.00 C198.26,253.00 206.62,265.79 203.95,277.72 C202.51,284.16 200.01,287.19 193.05,290.89 L 187.00 294.12 L 187.01 302.31 C187.01,315.94 189.70,321.16 194.32,316.54 C195.12,315.73 196.34,312.70 197.02,309.79 C199.07,301.09 203.39,292.84 208.62,287.66 C215.87,280.47 219.83,278.78 231.05,278.09 C237.66,277.68 241.41,276.96 243.26,275.75 C244.73,274.79 247.71,274.00 249.88,274.00 C253.05,274.00 254.33,274.60 256.41,277.08 C259.56,280.82 259.58,281.73 256.81,295.22 C255.60,301.12 254.93,306.27 255.33,306.66 C256.98,308.31 259.12,303.79 261.81,292.99 C265.08,279.83 267.59,274.37 272.07,270.59 C275.49,267.71 277.44,267.81 282.10,271.09 C284.68,272.91 284.74,272.90 288.74,269.96 C293.33,266.59 299.95,264.00 303.99,264.00 C307.03,264.00 313.46,268.64 316.22,272.82 C317.60,274.92 317.99,277.61 317.99,285.25 C318.00,293.13 318.28,295.00 319.46,295.00 C320.95,295.00 321.61,293.11 324.42,280.79 C325.27,277.09 327.09,271.28 328.48,267.86 C331.58,260.24 331.58,260.19 328.50,254.40 C325.50,248.76 325.32,243.63 327.96,239.30 C330.91,234.46 335.30,232.58 343.72,232.54 C350.23,232.50 351.21,232.76 353.60,235.15 C355.06,236.61 356.79,239.91 357.44,242.47 L 358.63 247.14 L 361.35 240.21 C364.81,231.37 369.90,225.30 374.56,224.42 C379.02,223.59 383.72,225.52 385.39,228.89 C386.84,231.79 386.66,233.08 381.14,259.00 C378.11,273.23 377.15,284.36 378.87,285.42 C380.35,286.33 382.75,282.74 384.48,277.00 C388.88,262.45 396.38,251.99 406.04,246.91 C409.69,244.99 412.06,244.56 419.08,244.53 C426.67,244.50 428.05,244.21 431.08,241.96 C433.92,239.86 434.85,239.57 437.72,240.26 C438.83,240.77 440.03,241.00 441.06,240.93 C441.98,240.99 442.63,240.81 443.06,240.25 C443.33,240.03 443.54,239.76 443.67,239.43 ZM 78.00 329.97 C78.00,329.40 76.85,326.66 75.44,323.89 C73.78,320.61 72.83,316.96 71.89,309.93 C71.83,309.31 71.76,308.68 71.69,308.01 L 70.65 297.49 L 74.85 291.34 C80.54,283.01 85.95,277.61 93.27,272.98 C99.42,269.10 99.45,268.83 94.00,267.60 C86.88,266.00 82.50,260.98 78.95,250.33 C75.39,239.67 71.67,239.36 67.04,249.33 C63.94,256.00 61.91,260.84 60.67,264.70 C59.74,267.29 59.02,270.67 59.00,273.59 C59.00,273.73 59.00,273.86 59.00,274.00 C59.00,279.91 60.49,289.06 62.66,298.34 C65.44,310.30 69.37,322.43 72.79,328.22 C74.37,330.89 78.00,332.11 78.00,329.97 ZM 346.57 255.54 C351.98,253.27 354.55,245.50 351.85,239.56 C349.50,234.40 338.36,235.40 333.47,241.21 C330.00,245.35 330.57,250.27 334.98,254.25 C338.41,257.34 341.44,257.68 346.57,255.54 ZM 235.60 168.60 C238.52,165.68 239.00,164.52 239.00,160.43 C239.00,154.05 237.08,152.00 231.10,152.00 C228.57,152.00 224.93,152.79 223.00,153.75 C213.08,158.71 216.95,171.89 228.35,171.97 C231.41,171.99 232.89,171.31 235.60,168.60 ZM 71.61 228.71 C69.93,227.47 69.94,227.11 71.98,221.06 C75.84,209.61 82.48,198.00 85.17,198.00 C86.63,198.00 86.06,206.88 83.85,218.60 L 81.71 230.00 L 77.54 230.00 C75.26,230.00 72.59,229.42 71.61,228.71 ZM 109.39 224.75 C110.18,223.51 112.01,217.55 113.46,211.50 C114.92,205.45 116.55,199.43 117.09,198.12 C117.63,196.81 117.90,195.57 117.68,195.35 C117.47,195.13 115.02,195.45 112.24,196.04 C106.27,197.32 105.46,198.70 104.06,209.94 C102.82,219.98 103.66,227.00 106.12,227.00 C107.13,227.00 108.60,225.99 109.39,224.75 ZM 221.07 317.37 C216.09,311.03 221.07,301.00 229.20,301.00 C232.78,301.00 234.00,302.86 234.00,308.30 C234.00,312.54 233.54,313.66 230.60,316.60 C226.52,320.68 223.85,320.90 221.07,317.37 ZM 323.40 193.60 C319.40,189.60 319.31,188.78 322.29,183.50 C324.42,179.73 324.85,179.48 329.71,179.20 C334.15,178.94 335.04,179.20 336.03,181.06 C336.69,182.29 336.91,184.68 336.54,186.63 C335.83,190.44 330.61,197.00 328.30,197.00 C327.47,197.00 325.27,195.47 323.40,193.60 ZM 265.31 206.36 C263.16,205.49 261.82,199.60 263.03,196.39 C264.56,192.36 268.96,188.00 271.51,188.00 C274.33,188.00 278.00,192.00 278.00,195.06 C277.99,197.75 274.73,203.80 272.22,205.75 C270.62,207.00 267.55,207.27 265.31,206.36 ZM 407.52 285.02 C403.56,280.64 407.87,269.78 413.80,269.19 C418.94,268.68 421.00,270.43 421.00,275.31 C421.00,284.23 412.40,290.42 407.52,285.02 ZM 436.22 175.44 C433.45,173.50 433.38,170.13 436.01,164.97 C439.67,157.81 445.39,156.16 447.85,161.57 C451.03,168.54 446.54,177.00 439.66,177.00 C438.99,177.00 437.44,176.30 436.22,175.44 ZM 353.39 280.70 C355.05,273.13 357.99,255.49 358.00,253.10 C358.00,252.05 357.47,252.17 355.90,253.59 C351.96,257.16 350.91,260.83 349.98,274.31 C349.89,275.62 349.81,276.84 349.73,277.95 C349.08,287.33 348.91,289.67 349.38,289.81 C349.53,289.85 349.76,289.65 350.06,289.38 C350.17,289.28 350.28,289.18 350.41,289.07 C351.19,288.43 352.53,284.66 353.39,280.70 ZM 206.01 209.49 C207.78,207.60 208.39,205.78 208.44,202.24 C208.50,197.61 208.43,197.49 205.24,197.19 C198.69,196.56 193.19,206.05 197.57,210.43 C199.88,212.73 203.32,212.35 206.01,209.49 ZM 116.98 304.68 C117.01,299.39 115.51,297.00 112.16,297.00 C108.45,297.00 106.99,298.69 107.05,302.95 C107.09,306.10 107.56,306.73 111.30,308.59 C116.13,310.99 116.96,310.43 116.98,304.68 ZM 293.46 391.62 C293.04,389.43 293.43,387.21 294.50,385.13 C296.48,382.18 299.18,379.63 302.60,377.51 C303.95,376.78 305.42,376.14 307.00,375.59 C312.17,373.80 313.00,373.69 313.00,374.81 C313.00,375.26 310.83,376.57 308.17,377.73 C302.32,380.29 297.46,385.58 296.00,390.99 C295.41,393.19 294.74,395.00 294.51,395.00 C294.28,395.00 293.81,393.48 293.46,391.62 ZM 363.53 175.59 C365.43,171.03 365.42,166.38 363.51,165.64 C361.26,164.78 359.01,170.03 358.32,177.78 L 357.72 184.50 L 359.89 181.81 C361.08,180.33 362.72,177.53 363.53,175.59 ZM 486.52 162.26 C486.19,162.04 485.62,162.00 484.74,162.00 C483.27,162.00 480.20,163.67 477.36,166.03 C474.53,168.37 471.66,169.94 470.50,169.78 C469.80,169.68 469.34,169.50 469.02,168.52 C469.56,168.83 470.00,168.60 470.00,167.99 C470.00,166.31 476.99,160.04 479.59,159.39 C482.88,158.56 485.77,159.77 486.52,162.26 ZM 270.17 200.35 C272.37,198.35 272.71,192.00 270.62,192.00 C268.81,192.00 267.32,193.88 266.49,197.20 C265.84,199.77 266.42,202.00 267.73,202.00 C268.07,202.00 269.17,201.26 270.17,200.35 ZM 330.17 189.35 C332.48,187.26 332.54,183.42 330.28,182.55 C328.07,181.71 326.00,184.44 326.00,188.19 C326.00,191.37 327.48,191.78 330.17,189.35 ZM 338.20 400.80 C336.57,399.17 341.50,394.00 344.69,394.00 C347.81,394.00 347.60,395.02 343.70,398.80 C339.98,402.41 339.86,402.46 338.20,400.80 ZM 414.44 279.78 C416.55,276.77 416.43,274.00 414.20,274.00 C411.60,274.00 410.00,275.98 410.00,279.20 C410.00,282.63 412.24,282.92 414.44,279.78 ZM 227.96 313.07 C229.68,309.86 229.24,307.00 227.04,307.00 C224.63,307.00 222.67,310.37 223.51,313.04 C224.31,315.55 226.63,315.56 227.96,313.07 ZM 101.14 336.03 C103.90,333.74 102.98,333.58 96.12,335.16 C93.35,335.80 91.32,336.70 91.60,337.16 C92.57,338.74 98.77,338.01 101.14,336.03 Z" fill="rgb(238,213,189)"/>
<path d="M 0.00 250.00 L 0.00 0.00 L 250.00 0.00 L 500.00 0.00 L 500.00 250.00 L 500.00 500.00 L 250.00 500.00 L 0.00 500.00 L 0.00 250.00 ZM 255.60 458.99 C292.31,456.13 314.95,450.60 339.50,438.50 C365.19,425.85 391.35,406.40 406.03,389.03 C417.10,375.93 433.99,349.81 440.53,335.64 C443.87,328.42 457.89,288.26 460.25,279.19 C461.46,274.53 460.14,248.54 457.43,223.50 C455.40,204.79 455.44,204.17 458.75,203.38 C461.82,202.64 470.32,198.01 470.83,196.79 C471.02,196.35 471.80,196.00 472.58,196.00 C473.36,196.00 474.00,195.52 474.00,194.94 C474.00,194.36 474.39,194.12 474.87,194.42 C476.29,195.30 478.68,191.83 480.34,186.50 C481.19,183.75 483.08,177.74 484.53,173.14 C486.01,168.45 486.91,163.76 486.58,162.46 C485.92,159.84 482.97,158.54 479.59,159.39 C476.99,160.04 470.00,166.31 470.00,167.99 C470.00,168.61 469.55,168.84 469.00,168.50 C468.45,168.16 468.00,163.68 468.00,158.51 C468.00,151.48 468.38,148.77 469.51,147.63 C473.13,144.01 472.56,136.07 468.49,133.40 C466.21,131.91 465.51,131.90 459.75,133.37 C453.40,135.00 437.33,137.26 431.04,137.41 C427.78,137.50 427.00,136.78 417.58,125.00 C403.32,107.16 390.30,94.35 374.17,82.28 C347.04,62.00 314.14,48.36 280.22,43.36 C266.87,41.39 232.92,41.10 221.00,42.85 C211.79,44.20 194.03,48.23 187.54,50.44 C145.60,64.74 126.45,77.36 94.19,111.98 C76.02,131.49 70.07,140.41 58.12,166.11 L 52.26 178.73 L 45.36 180.82 C39.07,182.73 28.12,189.72 25.75,193.35 C25.33,193.98 25.05,198.29 25.13,202.92 C25.28,212.70 27.81,219.64 32.99,224.50 C36.40,227.70 41.00,235.82 41.00,238.64 C41.00,239.58 40.26,241.17 39.35,242.17 C36.15,245.70 27.44,244.19 19.84,238.80 C17.76,237.32 10.43,240.32 8.84,243.30 C8.09,244.69 8.11,245.05 8.90,244.56 C9.51,244.19 9.12,245.37 8.05,247.19 C5.19,252.03 5.57,265.59 8.68,269.79 C10.38,272.08 10.60,273.02 9.68,274.01 C8.75,275.02 8.81,275.12 9.92,274.48 C10.96,273.89 11.18,274.10 10.74,275.24 C10.12,276.85 13.03,280.29 14.62,279.83 C15.11,279.69 16.44,280.10 17.59,280.74 C19.55,281.83 22.42,282.26 35.93,283.47 C38.92,283.74 41.70,284.31 42.12,284.73 C42.53,285.15 44.02,290.14 45.42,295.82 C46.82,301.50 50.89,313.87 54.46,323.32 C58.04,332.77 62.33,345.88 64.00,352.46 C65.67,359.04 68.04,365.92 69.27,367.76 C70.49,369.60 74.20,372.89 77.50,375.08 C80.80,377.26 89.12,384.58 96.00,391.33 C124.96,419.78 143.58,432.68 172.08,444.03 C189.78,451.08 207.50,455.41 231.19,458.45 C236.86,459.18 241.77,459.83 242.10,459.89 C242.44,459.95 248.51,459.55 255.60,458.99 ZM 283.08 133.85 C275.38,129.83 268.05,121.02 265.40,112.58 C263.86,107.72 263.83,106.73 265.12,103.33 C268.21,95.23 277.06,92.52 298.26,93.20 C310.11,93.58 312.42,93.92 314.77,95.66 C318.95,98.77 320.35,104.15 319.00,111.93 C316.08,128.70 309.49,135.81 296.00,136.75 C290.11,137.16 288.90,136.89 283.08,133.85 ZM 203.50 134.96 C199.78,133.74 198.02,132.35 195.28,128.44 C190.13,121.09 186.74,106.33 188.91,100.70 C189.64,98.81 191.54,97.18 194.75,95.70 C199.02,93.72 201.13,93.50 215.53,93.50 C230.75,93.50 231.81,93.63 236.53,96.05 C243.02,99.39 244.42,102.25 243.10,109.44 C241.27,119.32 234.29,130.25 227.61,133.70 C223.92,135.61 208.00,136.44 203.50,134.96 Z" fill="rgb(254,254,254)"/>
</g>
</svg>